<?xml version="1.0" encoding="UTF-8"?>
<!DOCTYPE svg PUBLIC "-//W3C//DTD SVG 1.1//EN" "http://www.w3.org/Graphics/SVG/1.1/DTD/svg11.dtd">
<!-- Creator: CorelDRAW X8 -->
<svg xmlns="http://www.w3.org/2000/svg" xml:space="preserve" width="41.5792mm" height="21.5114mm" version="1.1" style="shape-rendering:geometricPrecision; text-rendering:geometricPrecision; image-rendering:optimizeQuality; fill-rule:evenodd; clip-rule:evenodd"
viewBox="0 0 1140 590"
 xmlns:xlink="http://www.w3.org/1999/xlink">
 <defs>
  <style type="text/css">
   <![CDATA[
    .fil0 {fill:black}
   ]]>
  </style>
 </defs>
 <g id="Capa_x0020_1">
  <metadata id="CorelCorpID_0Corel-Layer"/>
  <g id="_1870244325824">
   <path class="fil0" d="M529 585l61 0 0 -146c7,5 60,97 69,111 25,42 12,35 58,35l0 -293c0,-12 -23,-7 -55,-7 -11,0 -7,19 -7,31l0 116c-6,-5 -19,-29 -24,-37l-57 -94c-11,-19 -7,-16 -45,-16l0 300z"/>
   <path class="fil0" d="M314 350l0 168c0,96 181,96 181,0l0 -100c0,-6 -2,-7 -7,-7l-84 0 0 49 30 0c0,59 8,81 -32,81 -19,0 -28,-9 -28,-28l0 -151c0,-32 15,-30 39,-30 25,0 21,30 21,51l61 0 0 -28c0,-44 -40,-72 -84,-72 -28,0 -48,2 -71,18 -12,8 -26,30 -26,49z"/>
   <path class="fil0" d="M0 360c0,55 40,73 71,89 44,21 50,15 50,71 0,31 -58,24 -58,5l0 -49 -63 0c0,37 -4,70 25,93 52,41 156,17 156,-44 0,-42 4,-76 -51,-105 -56,-29 -67,-20 -67,-70 0,-26 58,-26 58,3l0 30 60 0c0,-31 5,-61 -26,-83 -45,-31 -155,-26 -155,60z"/>
   <path class="fil0" d="M850 388c0,13 7,36 10,50l11 52 -45 0c1,-3 19,-95 24,-102zm-107 197l63 0c0,-17 8,-31 9,-47l67 0c3,12 9,34 9,47l63 0 -19 -77c-6,-26 -12,-49 -19,-75l-33 -132c-5,-20 0,-16 -59,-16 -9,0 -10,17 -14,33l-67 267z"/>
   <path class="fil0" d="M982 585l158 0 0 -47 -91 0c-5,0 -7,-1 -7,-7l0 -246 -60 0 0 300z"/>
   <polygon class="fil0" points="216,585 276,585 276,285 216,285 "/>
   <path class="fil0" d="M242 121c0,24 -1,35 10,59 8,15 11,19 21,32 17,22 35,33 57,48 9,-2 33,-18 42,-23 -6,-9 -122,-72 -48,-171 14,-18 29,-28 48,-40 -5,-6 -37,-26 -42,-25 -13,1 -88,61 -88,120z"/>
   <path class="fil0" d="M724 23c7,10 46,26 64,69 36,86 -57,135 -64,145l40 23c8,1 48,-34 58,-46 30,-40 45,-86 21,-134 -7,-15 -10,-19 -20,-32 -17,-22 -35,-33 -57,-48 -10,2 -33,18 -42,23z"/>
   <path class="fil0" d="M636 74c2,7 5,8 10,11 34,24 32,67 1,89 -5,3 -9,5 -11,12 37,8 27,45 76,-8 24,-26 25,-68 1,-95 -48,-55 -43,-17 -77,-9z"/>
   <path class="fil0" d="M365 130c0,39 43,77 55,77 6,0 29,-19 40,-21 -3,-11 -62,-38 -22,-90 11,-14 19,-11 22,-22 -38,-8 -27,-45 -76,8 -8,8 -19,32 -19,48z"/>
   <path class="fil0" d="M490 130c0,46 116,46 116,0 0,-46 -116,-46 -116,0z"/>
  </g>
 </g>
</svg>
